HIERARCHY
ROOT reference
{
  OFFSET 0 0 0
  CHANNELS 6 Xposition Yposition Zposition Zrotation Xrotation Yrotation
  JOINT Hips
  {
    OFFSET -7.89871 90.6651 5.62195
    CHANNELS 3 Zrotation Xrotation Yrotation
    JOINT RightUpLeg
    {
      OFFSET -9.21885 -1.56061 0.0844774
      CHANNELS 3 Zrotation Xrotation Yrotation
      JOINT RightLeg
      {
        OFFSET 0.0759573 -41.8717 0.118208
        CHANNELS 3 Zrotation Xrotation Yrotation
        JOINT RightFoot
        {
          OFFSET 1.34502 -38.9151 -0.448246
          CHANNELS 3 Zrotation Xrotation Yrotation
          End Site
          {
            OFFSET 0 -7.69 17.5
          }
        }
      }
    }
    JOINT LeftUpLeg
    {
      OFFSET 9.27267 -1.63951 -0.0842984
      CHANNELS 3 Zrotation Xrotation Yrotation
      JOINT LeftLeg
      {
        OFFSET 0.0869384 -41.8889 -0.0221301
        CHANNELS 3 Zrotation Xrotation Yrotation
        JOINT LeftFoot
        {
          OFFSET -2.13222 -44.1147 -0.152215
          CHANNELS 3 Zrotation Xrotation Yrotation
          End Site
          {
            OFFSET 0 -7.69 17.5
          }
        }
      }
    }
    JOINT Spine
    {
      OFFSET 0.024744 14.3094 0.053081
      CHANNELS 3 Zrotation Xrotation Yrotation
      JOINT Spine1
      {
        OFFSET -0.0513397 9.71791 -0.00182377
        CHANNELS 3 Zrotation Xrotation Yrotation
        JOINT Spine2
        {
          OFFSET -0.00312382 10.1145 -0.0367717
          CHANNELS 3 Zrotation Xrotation Yrotation
          JOINT Spine3
          {
            OFFSET 0.0163783 9.71865 -0.00479641
            CHANNELS 3 Zrotation Xrotation Yrotation
            JOINT Neck
            {
              OFFSET -0.0517516 10.3796 0.0153939
              CHANNELS 3 Zrotation Xrotation Yrotation
              JOINT Head
              {
                OFFSET -0.0385264 9.46348 0.0684403
                CHANNELS 3 Zrotation Xrotation Yrotation
                End Site
                {
                  OFFSET 0 15.95 0
                }
              }
            }
            JOINT RightShoulder
            {
              OFFSET -3.13939 6.93498 -0.0552089
              CHANNELS 3 Zrotation Xrotation Yrotation
              JOINT RightArm
              {
                OFFSET -12.7016 -0.00451177 0.0159222
                CHANNELS 3 Zrotation Xrotation Yrotation
                JOINT RightForeArm
                {
                  OFFSET -26.5368 -0.0539853 0.0798031
                  CHANNELS 3 Zrotation Xrotation Yrotation
                  JOINT RightHand
                  {
                    OFFSET -25.9611 -0.0442561 0.0250852
                    CHANNELS 3 Zrotation Xrotation Yrotation
                    JOINT RightHandThumb1
                    {
                      OFFSET -2.48905 0.190105 3.12053
                      CHANNELS 3 Zrotation Xrotation Yrotation
                      JOINT RightHandThumb2
                      {
                        OFFSET -3.68274 0 0
                        CHANNELS 3 Zrotation Xrotation Yrotation
                        JOINT RightHandThumb3
                        {
                          OFFSET -2.55832 0 0
                          CHANNELS 3 Zrotation Xrotation Yrotation
                          End Site
                          {
                            OFFSET -2.194 0 0
                          }
                        }
                      }
                    }
                    JOINT RightInHandIndex
                    {
                      OFFSET -3.22368 0.508421 1.97842
                      CHANNELS 3 Zrotation Xrotation Yrotation
                      JOINT RightHandIndex1
                      {
                        OFFSET -5.21684 -0.091368 0.999158
                        CHANNELS 3 Zrotation Xrotation Yrotation
                        JOINT RightHandIndex2
                        {
                          OFFSET -3.61937 0 0
                          CHANNELS 3 Zrotation Xrotation Yrotation
                          JOINT RightHandIndex3
                          {
                            OFFSET -2.0521 0 0
                            CHANNELS 3 Zrotation Xrotation Yrotation
                            End Site
                            {
                              OFFSET -1.805 0 0
                            }
                          }
                        }
                      }
                    }
                    JOINT RightInHandMiddle
                    {
                      OFFSET -3.38211 0.517263 0.756737
                      CHANNELS 3 Zrotation Xrotation Yrotation
                      JOINT RightHandMiddle1
                      {
                        OFFSET -5.17411 -0.084 0.313895
                        CHANNELS 3 Zrotation Xrotation Yrotation
                        JOINT RightHandMiddle2
                        {
                          OFFSET -3.94947 0 0
                          CHANNELS 3 Zrotation Xrotation Yrotation
                          JOINT RightHandMiddle3
                          {
                            OFFSET -2.47579 0 0
                            CHANNELS 3 Zrotation Xrotation Yrotation
                            End Site
                            {
                              OFFSET -1.975 0 0
                            }
                          }
                        }
                      }
                    }
                    JOINT RightInHandRing
                    {
                      OFFSET -3.36516 0.537895 -0.128947
                      CHANNELS 3 Zrotation Xrotation Yrotation
                      JOINT RightHandRing1
                      {
                        OFFSET -4.63474 -0.022105 -0.478947
                        CHANNELS 3 Zrotation Xrotation Yrotation
                        JOINT RightHandRing2
                        {
                          OFFSET -3.44238 0 0
                          CHANNELS 3 Zrotation Xrotation Yrotation
                          JOINT RightHandRing3
                          {
                            OFFSET -2.3881 0 0
                            CHANNELS 3 Zrotation Xrotation Yrotation
                            End Site
                            {
                              OFFSET -1.857 0 0
                            }
                          }
                        }
                      }
                    }
                    JOINT RightInHandPinky
                    {
                      OFFSET -3.16105 0.469368 -1.20179
                      CHANNELS 3 Zrotation Xrotation Yrotation
                      JOINT RightHandPinky1
                      {
                        OFFSET -4.14105 -0.022105 -1.09053
                        CHANNELS 3 Zrotation Xrotation Yrotation
                        JOINT RightHandPinky2
                        {
                          OFFSET -2.75653 0 0
                          CHANNELS 3 Zrotation Xrotation Yrotation
                          JOINT RightHandPinky3
                          {
                            OFFSET -1.74189 0 0
                            CHANNELS 3 Zrotation Xrotation Yrotation
                            End Site
                            {
                              OFFSET -1.645 0 0
                            }
                          }
                        }
                      }
                    }
                  }
                }
              }
            }
            JOINT LeftShoulder
            {
              OFFSET 3.22035 6.91275 -0.0103841
              CHANNELS 3 Zrotation Xrotation Yrotation
              JOINT LeftArm
              {
                OFFSET 12.8423 -0.00770811 0.00920525
                CHANNELS 3 Zrotation Xrotation Yrotation
                JOINT LeftForeArm
                {
                  OFFSET 26.4606 0.0104107 0.0699304
                  CHANNELS 3 Zrotation Xrotation Yrotation
                  JOINT LeftHand
                  {
                    OFFSET 25.9013 -0.12909 -0.0638686
                    CHANNELS 3 Zrotation Xrotation Yrotation
                    JOINT LeftHandThumb1
                    {
                      OFFSET 2.48905 0.190105 3.12053
                      CHANNELS 3 Zrotation Xrotation Yrotation
                      JOINT LeftHandThumb2
                      {
                        OFFSET 3.68274 0 0
                        CHANNELS 3 Zrotation Xrotation Yrotation
                        JOINT LeftHandThumb3
                        {
                          OFFSET 2.55832 0 0
                          CHANNELS 3 Zrotation Xrotation Yrotation
                          End Site
                          {
                            OFFSET 2.194 0 0
                          }
                        }
                      }
                    }
                    JOINT LeftInHandIndex
                    {
                      OFFSET 3.22368 0.508421 1.97842
                      CHANNELS 3 Zrotation Xrotation Yrotation
                      JOINT LeftHandIndex1
                      {
                        OFFSET 5.21684 -0.091368 0.999158
                        CHANNELS 3 Zrotation Xrotation Yrotation
                        JOINT LeftHandIndex2
                        {
                          OFFSET 3.61937 0 0
                          CHANNELS 3 Zrotation Xrotation Yrotation
                          JOINT LeftHandIndex3
                          {
                            OFFSET 2.0521 0 0
                            CHANNELS 3 Zrotation Xrotation Yrotation
                            End Site
                            {
                              OFFSET 1.805 0 0
                            }
                          }
                        }
                      }
                    }
                    JOINT LeftInHandMiddle
                    {
                      OFFSET 3.38211 0.517263 0.756737
                      CHANNELS 3 Zrotation Xrotation Yrotation
                      JOINT LeftHandMiddle1
                      {
                        OFFSET 5.17411 -0.084 0.313895
                        CHANNELS 3 Zrotation Xrotation Yrotation
                        JOINT LeftHandMiddle2
                        {
                          OFFSET 3.94947 0 0
                          CHANNELS 3 Zrotation Xrotation Yrotation
                          JOINT LeftHandMiddle3
                          {
                            OFFSET 2.47579 0 0
                            CHANNELS 3 Zrotation Xrotation Yrotation
                            End Site
                            {
                              OFFSET 1.975 0 0
                            }
                          }
                        }
                      }
                    }
                    JOINT LeftInHandRing
                    {
                      OFFSET 3.36516 0.537895 -0.128947
                      CHANNELS 3 Zrotation Xrotation Yrotation
                      JOINT LeftHandRing1
                      {
                        OFFSET 4.63474 -0.022105 -0.478947
                        CHANNELS 3 Zrotation Xrotation Yrotation
                        JOINT LeftHandRing2
                        {
                          OFFSET 3.44238 0 0
                          CHANNELS 3 Zrotation Xrotation Yrotation
                          JOINT LeftHandRing3
                          {
                            OFFSET 2.3881 0 0
                            CHANNELS 3 Zrotation Xrotation Yrotation
                            End Site
                            {
                              OFFSET 1.857 0 0
                            }
                          }
                        }
                      }
                    }
                    JOINT LeftInHandPinky
                    {
                      OFFSET 3.16105 0.469368 -1.20179
                      CHANNELS 3 Zrotation Xrotation Yrotation
                      JOINT LeftHandPinky1
                      {
                        OFFSET 4.14105 -0.022105 -1.09053
                        CHANNELS 3 Zrotation Xrotation Yrotation
                        JOINT LeftHandPinky2
                        {
                          OFFSET 2.75653 0 0
                          CHANNELS 3 Zrotation Xrotation Yrotation
                          JOINT LeftHandPinky3
                          {
                            OFFSET 1.74189 0 0
                            CHANNELS 3 Zrotation Xrotation Yrotation
                            End Site
                            {
                              OFFSET 1.645 0 0
                            }
                          }
                        }
                      }
                    }
                  }
                }
              }
            }
          }
        }
      }
    }
  }
}
MOTION
Frames:	4
Frame Time:	0.00416667
0 0 0 0 0 -0 16.0305 -21.3723 -140.613 2.16811 -42.9329 8.48918 -9.0169 6.27552 44.5438 13.8744 0.77411 68.7916 14.775 -19.9331 36.0106 -0.307691 1.81759 -13.1497 -12.1995 -3.62306 -6.11657 -4.27991 16.613 -3.87212 -1.14908 4.03545 -1.37599 -1.84031 6.42833 -2.48256 -0.882106 -0.262539 1.48215 -0.892572 -0.240123 1.51359 -16.334 -3.90516 28.2071 -11.4288 -10.6192 11.2417 72.2137 -0.807456 42.9227 118.535 -79.7942 -177.38 7.60825 -13.8565 17.1479 28.184 10.7294 19.1592 -2.49232e-15 -3.97569e-16 -10 -1.29812e-15 -2.78299e-15 -10 -6.36111e-15 -4.77083e-15 -0 19.9818 0.871897 2.3964 24 3.18055e-15 -0 20 0 -4.77083e-15 -6.36111e-15 -4.77083e-15 -0 20 1.41013e-15 1.59028e-14 24 3.97569e-15 6.36111e-15 20 7.95139e-15 -1.59028e-15 -6.36111e-15 -4.77083e-15 -0 19.9748 -1.02565 -2.81938 24 3.18055e-15 4.77083e-15 20 -1.59028e-15 -4.77083e-15 -6.36111e-15 -4.77083e-15 -0 19.7815 -3.00948 -8.30515 24 4.77083e-15 -0 20 0 5.56597e-15 -26.4175 -21.093 -19.583 1.59159 48.6944 -114.485 15.052 26.3005 -25.8406 59.0013 33.0749 39.7572 -28.184 10.7294 -19.1592 1.05398e-14 -1.39149e-15 10 -5.48058e-16 1.799e-14 10 3.18055e-15 -1.59028e-15 -3.18055e-15 -19.9818 0.871897 -2.3964 -24 5.56597e-15 1.27222e-14 -20 -9.54166e-15 -1.59028e-14 3.18055e-15 -1.59028e-15 -3.18055e-15 -20 1.59028e-15 -9.54166e-15 -24 -1.03368e-14 3.18055e-15 -20 -6.36111e-15 -3.18055e-15 3.18055e-15 -1.59028e-15 -3.18055e-15 -19.9748 -1.02565 2.81938 -24 1.59028e-15 -6.36111e-15 -20 -4.77083e-15 -3.18055e-15 3.18055e-15 -1.59028e-15 -3.18055e-15 -19.7815 -3.00948 8.30515 -24 1.59028e-15 3.18055e-15 -20 -3.18055e-15 6.36111e-15 
0 0 0 0 0 -0 16.0393 -21.3962 -140.271 1.96064 -42.9851 8.30694 -9.17548 6.42119 44.4927 13.8702 0.592326 68.7017 14.6258 -20.0615 35.8965 -0.341191 1.75243 -13.2625 -12.1715 -3.48306 -6.22647 -4.23856 16.6196 -3.82743 -1.13776 4.03877 -1.36112 -1.82227 6.43472 -2.45645 -0.878723 -0.255787 1.48635 -0.889125 -0.233269 1.51788 -16.3002 -3.77225 28.3045 -11.4168 -10.654 11.3189 71.7539 -0.880438 43.271 119.11 -80.6133 -176.546 7.74181 -13.8158 17.0414 28.184 10.7294 19.1592 -2.28201e-15 7.95139e-16 -10 -3.08942e-15 7.95139e-16 -10 -3.08973e-31 -5.56597e-15 -3.18055e-15 19.9818 0.871897 2.3964 24 0 -1.59028e-14 20 -3.18055e-15 -1.11319e-14 -3.08973e-31 -5.56597e-15 -3.18055e-15 20 -5.2181e-15 3.18055e-15 24 0 -3.18055e-15 20 -1.59028e-15 -9.54166e-15 -3.08973e-31 -5.56597e-15 -3.18055e-15 19.9748 -1.02565 -2.81938 24 0 -1.43125e-14 20 -6.36111e-15 -7.95139e-15 -3.08973e-31 -5.56597e-15 -3.18055e-15 19.7815 -3.00948 -8.30515 24 -1.19271e-14 -3.49861e-14 20 -7.95139e-16 -1.19271e-14 -26.4591 -20.9691 -19.5525 1.4404 48.4444 -114.333 14.9607 25.7872 -25.8699 59.8831 32.9794 39.2424 -28.184 10.7294 -19.1592 7.62776e-15 4.82053e-15 10 9.51899e-15 -1.16289e-14 10 3.18055e-15 3.18055e-15 -3.18055e-15 -19.9818 0.871897 -2.3964 -24 -5.1684e-15 3.18055e-15 -20 4.77083e-15 2.8625e-14 3.18055e-15 3.18055e-15 -3.18055e-15 -20 1.03368e-14 -0 -24 1.35174e-14 9.54166e-15 -20 1.59028e-15 1.27222e-14 3.18055e-15 3.18055e-15 -3.18055e-15 -19.9748 -1.02565 2.81938 -24 -1.19271e-15 3.18055e-15 -20 3.18055e-15 1.59028e-14 3.18055e-15 3.18055e-15 -3.18055e-15 -19.7815 -3.00948 8.30515 -24 5.1684e-15 -1.27222e-14 -20 -3.18055e-15 6.36111e-15 
0 0 0 0 0 -0 16.0487 -21.4206 -139.915 1.74072 -43.0376 8.10985 -9.33534 6.56908 44.4398 13.8647 0.409023 68.611 14.4697 -20.1936 35.7763 -0.376623 1.68673 -13.3831 -12.1401 -3.34113 -6.33724 -4.19402 16.6286 -3.78425 -1.12571 4.04269 -1.34648 -1.80301 6.44205 -2.4307 -0.875016 -0.24907 1.48685 -0.885317 -0.226528 1.51829 -16.2557 -3.64427 28.3225 -11.4049 -10.6876 11.4008 71.2961 -0.95664 43.6186 119.264 -81.5014 -176.109 7.77675 -13.846 16.9024 28.184 10.7294 19.1592 -4.70423e-15 7.95139e-16 -10 -4.70423e-15 7.95139e-16 -10 -6.36111e-15 7.95139e-16 -0 19.9818 0.871897 2.3964 24 -6.36111e-15 -3.18055e-15 20 -4.77083e-15 4.77083e-15 -6.36111e-15 7.95139e-16 -0 20 4.07509e-15 1.59028e-14 24 -1.59028e-15 -9.54166e-15 20 1.59028e-15 -4.77083e-15 -6.36111e-15 7.95139e-16 -0 19.9748 -1.02565 -2.81938 24 0 -4.77083e-15 20 0 4.77083e-15 -6.36111e-15 7.95139e-16 -0 19.7815 -3.00948 -8.30515 24 -7.15625e-15 -1.43125e-14 20 3.97569e-15 1.03368e-14 -26.501 -20.8413 -19.5186 1.28715 48.1964 -114.178 14.8814 25.1954 -25.8422 60.7785 32.8343 38.6346 -28.184 10.7294 -19.1592 1.70425e-14 -2.78299e-15 10 1.20954e-14 6.95746e-15 10 -3.18055e-15 -3.18055e-15 6.36111e-15 -19.9818 0.871897 -2.3964 -24 -1.63003e-14 2.54444e-14 -20 1.59028e-15 3.18055e-15 -3.18055e-15 -3.18055e-15 6.36111e-15 -20 7.95139e-15 3.18055e-15 -24 6.75868e-15 2.22639e-14 -20 6.36111e-15 -3.18055e-15 -3.18055e-15 -3.18055e-15 6.36111e-15 -19.9748 -1.02565 2.81938 -24 -2.38542e-15 1.59028e-14 -20 -6.36111e-15 -6.36111e-15 -3.18055e-15 -3.18055e-15 6.36111e-15 -19.7815 -3.00948 8.30515 -24 -2.78299e-15 6.36111e-15 -20 1.59028e-15 9.54166e-15 
0 0 0 0 0 -0 16.0571 -21.4475 -139.544 1.50524 -43.0934 7.89929 -9.49588 6.72244 44.3819 13.8556 0.224506 68.5195 14.3037 -20.3308 35.6509 -0.4147 1.62063 -13.5164 -12.1052 -3.19704 -6.44591 -4.14544 16.6396 -3.7439 -1.11275 4.0471 -1.33237 -1.78223 6.45007 -2.40576 -0.871107 -0.242292 1.47577 -0.881206 -0.219945 1.50652 -16.192 -3.52558 28.0916 -11.3942 -10.7211 11.4938 70.8394 -1.03514 43.9654 121.426 -82.1986 -173.744 8.09154 -13.7041 16.7852 28.184 10.7294 19.1592 -6.49306e-15 -4.77083e-15 -10 -9.81431e-16 -5.56597e-15 -10 -0 0 6.36111e-15 19.9818 0.871897 2.3964 24 9.54166e-15 1.59028e-14 20 3.18055e-15 1.59028e-14 -0 0 6.36111e-15 20 4.67144e-15 3.18055e-14 24 1.11319e-14 2.22639e-14 20 0 1.90833e-14 -0 0 6.36111e-15 19.9748 -1.02565 -2.81938 24 6.36111e-15 2.54444e-14 20 1.59028e-15 2.06736e-14 -0 0 6.36111e-15 19.7815 -3.00948 -8.30515 24 5.56597e-15 3.18055e-14 20 3.97569e-15 8.74653e-15 -26.5435 -20.7111 -19.4731 1.13255 47.9492 -114.019 14.7565 24.8512 -25.9911 61.6284 32.719 38.3708 -28.184 10.7294 -19.1592 1.50603e-14 1.59028e-15 10 1.84483e-14 2.98177e-15 10 -3.18055e-15 -6.36111e-15 3.18055e-15 -19.9818 0.871897 -2.3964 -24 3.57812e-15 -3.18055e-15 -20 1.59028e-15 -6.36111e-15 -3.18055e-15 -6.36111e-15 3.18055e-15 -20 -7.95139e-15 -3.18055e-15 -24 3.97569e-16 -1.27222e-14 -20 3.18055e-15 -3.18055e-15 -3.18055e-15 -6.36111e-15 3.18055e-15 -19.9748 -1.02565 2.81938 -24 7.95139e-15 -6.36111e-15 -20 6.36111e-15 -0 -3.18055e-15 -6.36111e-15 3.18055e-15 -19.7815 -3.00948 8.30515 -24 -3.08116e-15 -0 -20 6.36111e-15 1.27222e-14 
